<svg width="64" height="48" viewBox="0 0 64 48" fill="none" xmlns="http://www.w3.org/2000/svg">
<circle cx="10.1523" cy="37.7358" r="10.1508" fill="#FF9040"/>
<path d="M15.4162 15.9302C12.4912 10.8638 14.227 4.38548 19.2934 1.46041L20.0579 1.01904C20.9023 0.531532 21.982 0.820844 22.4695 1.66524L40.1239 32.2435C43.0489 37.3099 41.3131 43.7882 36.2467 46.7133L35.4822 47.1546C34.6378 47.6422 33.5581 47.3528 33.0706 46.5084L15.4162 15.9302Z" fill="#FAC643"/>
<path d="M37.4842 15.8003C34.5591 10.7339 36.295 4.25556 41.3613 1.33049L42.1258 0.889131C42.9702 0.401619 44.0499 0.690931 44.5374 1.53533L62.1918 32.1136C65.1169 37.1799 63.381 43.6583 58.3146 46.5834L57.5502 47.0247C56.7058 47.5122 55.6261 47.2229 55.1385 46.3785L37.4842 15.8003Z" fill="#FAC643"/>
</svg>
