<svg width="25" height="24" viewBox="0 0 25 24" fill="none" xmlns="http://www.w3.org/2000/svg">
<path d="M19.5 10.3636C19.5 16.0909 12.5 21 12.5 21C12.5 21 5.5 16.0909 5.5 10.3636C5.5 8.41068 6.2375 6.53771 7.55025 5.15676C8.86301 3.77581 10.6435 3 12.5 3C14.3565 3 16.137 3.77581 17.4497 5.15676C18.7625 6.53771 19.5 8.41068 19.5 10.3636Z" stroke="#FF9040" stroke-width="2" stroke-linecap="round" stroke-linejoin="round"/>
<path d="M12.5 13C14.1569 13 15.5 11.6569 15.5 10C15.5 8.34315 14.1569 7 12.5 7C10.8431 7 9.5 8.34315 9.5 10C9.5 11.6569 10.8431 13 12.5 13Z" stroke="#FF9040" stroke-width="2" stroke-linecap="round" stroke-linejoin="round"/>
</svg>
